<?xml version="1.0" standalone="no"?><!DOCTYPE svg PUBLIC "-//W3C//DTD SVG 1.1//EN" "http://www.w3.org/Graphics/SVG/1.1/DTD/svg11.dtd"><svg t="1492593362163" class="icon" style="" viewBox="0 0 1024 1024" version="1.1" xmlns="http://www.w3.org/2000/svg" p-id="2908" xmlns:xlink="http://www.w3.org/1999/xlink" width="48" height="48"><defs><style type="text/css"></style></defs><path d="M511.981697 0C229.23133 0 0 229.23133 0 511.981697 0 794.768672 229.23133 1024 511.981697 1024 794.768672 1024 1024 794.768672 1024 511.981697 1024 229.23133 794.768672 0 511.981697 0L511.981697 0ZM719.944518 655.333645C737.808602 673.197728 737.808602 702.080435 719.944518 719.944518 711.012474 728.913165 699.298323 733.342579 687.620774 733.342579 675.906624 733.342579 664.229075 728.913165 655.297037 719.944518L511.981697 576.629178 368.702964 719.944518C359.770922 728.913165 348.093376 733.342579 336.379223 733.342579 324.66507 733.342579 312.987524 728.913165 304.055482 719.944518 286.191399 702.080435 286.191399 673.16112 304.055482 655.333645L447.334215 511.981697 304.055482 368.739571C286.191399 350.875487 286.191399 321.956172 304.055482 304.055482 321.882959 286.191399 350.838881 286.191399 368.702964 304.055482L511.981697 447.370822 655.297037 304.055482C673.16112 286.191399 702.117043 286.191399 719.944518 304.055482 737.808602 321.956172 737.808602 350.838881 719.944518 368.739571L576.629178 511.981697 719.944518 655.333645 719.944518 655.333645Z" p-id="2909" fill="#868686"></path></svg>